<?xml version="1.0" encoding="UTF-8"?>
<svg xmlns="http://www.w3.org/2000/svg" width="1200" height="630" viewBox="0 0 1200 630">
  <defs>
    <radialGradient id="bg" cx="50%" cy="0%" r="100%">
      <stop offset="0%" stop-color="#1a2236"/>
      <stop offset="60%" stop-color="#0a0f1a"/>
    </radialGradient>
    <linearGradient id="accent" x1="0%" y1="0%" x2="100%" y2="100%">
      <stop offset="0%" stop-color="#473bf0"/>
      <stop offset="100%" stop-color="#9b9ece"/>
    </linearGradient>
  </defs>
  <rect width="1200" height="630" fill="url(#bg)"/>
  <!-- stars -->
  <g fill="#fff" opacity="0.7">
    <circle cx="120" cy="80" r="1.5"/>
    <circle cx="240" cy="150" r="1"/>
    <circle cx="340" cy="60" r="2"/>
    <circle cx="490" cy="120" r="1"/>
    <circle cx="680" cy="90" r="1.5"/>
    <circle cx="820" cy="180" r="1"/>
    <circle cx="940" cy="60" r="2"/>
    <circle cx="1080" cy="140" r="1"/>
    <circle cx="1140" cy="220" r="1.5"/>
    <circle cx="180" cy="260" r="1"/>
    <circle cx="70" cy="400" r="1.5"/>
    <circle cx="1080" cy="500" r="2"/>
    <circle cx="950" cy="560" r="1"/>
    <circle cx="290" cy="540" r="1.5"/>
  </g>
  <!-- text -->
  <text x="80" y="240" font-family="Raleway, sans-serif" font-size="42" fill="#9b9ece" font-weight="500" letter-spacing="4">PORTFOLIO</text>
  <text x="80" y="340" font-family="Raleway, sans-serif" font-size="90" fill="url(#accent)" font-weight="700">Dawūd Vermeulen</text>
  <text x="80" y="410" font-family="Raleway, sans-serif" font-size="36" fill="#f3f4f6" font-weight="400">Full-Stack Developer · QA turned Dev</text>
  <text x="80" y="460" font-family="Raleway, sans-serif" font-size="28" fill="#acadbc" font-weight="400">TypeScript · Next.js · tRPC · React · Postgres</text>
  <!-- footer chip -->
  <rect x="80" y="510" width="260" height="50" rx="25" fill="#473bf0" opacity="0.18"/>
  <text x="100" y="543" font-family="Raleway, sans-serif" font-size="22" fill="#9b9ece" font-weight="500">📍 Cape Town, South Africa</text>
  <!-- URL -->
  <text x="1120" y="590" font-family="Raleway, sans-serif" font-size="20" fill="#9ca3af" text-anchor="end">dawudvermeulen.vercel.app</text>
</svg>