<svg xmlns="http://www.w3.org/2000/svg" width="489" height="509"><path fill="#0e53b9" d="m260.688 23.188 2.023.21q6.168.65 12.326 1.373c1.879.22 3.759.43 5.639.64 23.37 2.7 23.37 2.7 33.324 11.589q1.65 1.365 3.313 2.719C320.597 42.419 323.8 45.2 327 48l2.246 1.906C338.456 57.764 346.584 66.44 354 76l1.906 2.355C369.704 96.42 373.766 124.01 377 146l.566 3.27c.57 4.904.54 9.735.497 14.667l-.014 2.94q-.018 3.562-.049 7.123l2.52-.645c4.18-.426 7.304.547 11.168 1.958l2.01.685c3.077 1.076 5.575 2.184 8.302 4.002-2.069 8.712-4.318 17.355-6.875 25.938l-.765 2.572c-1.204 3.964-2.468 7.871-3.973 11.732-3.138 8.057-5.152 15.795-6.324 24.383l-.39 2.743c-.626 5.262-.628 10.194-.189 15.476.721 9.09.307 18.068-.153 27.165-.144 2.882-.27 5.764-.395 8.647l-.268 5.586-.11 2.567c-.497 9.344-2.134 16.47-7.495 24.191l-1.448 2.175a684 684 0 0 1-6.239 9.179 614 614 0 0 0-3.177 4.658 233 233 0 0 1-3.021 4.367c-2.7 3.814-2.7 3.814-2.721 8.293 4.184 6.313 8.675 11.827 15.73 14.89 10.047 4.451 14.558 18.232 19.438 27.563l3.393 6.45q1.049 1.99 2.09 3.984a233 233 0 0 0 1.96 3.653c.923 1.772 1.704 3.616 2.48 5.457 2.918 5.013 8.36 6.197 13.57 7.995l3.302 1.212a1057 1057 0 0 0 10.455 3.749 1806 1806 0 0 1 10.434 3.77q3.238 1.182 6.49 2.321c6.985 2.528 11.27 5.271 16.451 10.596 3.233 3.16 6.768 5.711 10.445 8.333 4.722 4.825 5.897 12.206 7.313 18.652l.518 2.291q.806 3.58 1.599 7.162l1.09 4.848q.768 3.408 1.529 6.818c.715 3.206 1.46 6.397 2.256 9.584H6a214 214 0 0 1 4.207-26.013q.541-2.481 1.022-4.974c2.027-10.475 4.274-17.147 13.238-23.4C28.543 452 28.543 452 31 452l.75-1.75c2.469-4.444 5.476-6.652 10.215-8.321l2.983-1.074 3.204-1.12 6.729-2.45c3.53-1.272 7.06-2.537 10.6-3.784a966 966 0 0 0 10.234-3.704l3.198-1.096C85.779 426.15 88.923 423.64 92 417l1.634-2.89 1.417-2.65 1.606-2.989 1.656-3.096c7.744-14.374 7.744-14.374 11.312-20.687.59-1.049 1.18-2.097 1.79-3.176 2.596-4.114 4.665-5.658 9.147-7.45 6.93-3.285 10.942-9.065 15.438-15.062-1.596-4.528-3.94-8.348-6.5-12.375l-1.32-2.098a559 559 0 0 0-11.043-16.741c-2.853-4.207-4.211-7.338-4.526-12.383l-.182-2.828-.183-3.067-.197-3.2q-.207-3.37-.406-6.743c-.201-3.365-.413-6.728-.625-10.092-.685-11.195-1.188-22.332-1.014-33.55.218-16.565-4.547-31.255-9.883-46.754-2.32-6.741-4.538-13.483-6.433-20.357l-.682-2.318c-1.3-4.902-1.3-4.902-.104-7.31 3.173-1.79 6.506-2.878 9.973-3.934l2.145-.707c4.012-1.248 6.935-1.844 10.98-.543l-.14-3.969c-.546-22.458 3.926-43.542 10.14-65.031l.727-2.573C129.65 92.222 132.987 84.163 140 76a1580 1580 0 0 0 2.688-3.285C152.929 60.32 164.165 48.72 177 39l3.113-2.441a815 815 0 0 1 3.262-2.434l2.898-2.18c8.667-5.218 20.481-5.624 30.293-6.825q2.999-.37 5.995-.757c3.81-.48 7.623-.928 11.439-1.363l3.12-.38c7.978-.848 15.606-.281 23.567.567"/><path fill="#c28253" d="m260.688 23.188 2.023.21q6.168.65 12.326 1.373c1.879.22 3.759.43 5.639.64 23.37 2.7 23.37 2.7 33.324 11.589q1.65 1.365 3.313 2.719C320.597 42.419 323.8 45.2 327 48l2.246 1.906C338.456 57.764 346.584 66.44 354 76l1.906 2.355C369.704 96.42 373.766 124.01 377 146l.566 3.27c.57 4.904.54 9.735.497 14.667l-.014 2.94q-.018 3.562-.049 7.123l2.52-.645c4.18-.426 7.304.547 11.168 1.958l2.01.685c3.077 1.076 5.575 2.184 8.302 4.002-2.069 8.712-4.318 17.355-6.875 25.938l-.765 2.572c-1.204 3.964-2.468 7.871-3.973 11.732-4.55 11.705-6.167 23.286-7.387 35.758h-3l-.519-2.703q-.966-5.024-1.935-10.047l-.832-4.326c-1.472-7.666-2.987-15.311-4.714-22.924-.35-1.997-.692-3.996-1-6h-7l-.772 2.949c-6.046 22.876-13.43 44.477-23.691 65.82a142 142 0 0 0-2.663 5.908c-.956 2.206-.956 2.206-2.874 5.323-2.797 1-2.797 1-5.75 1-1.477.03-1.477.03-2.984.063L323 291l-.926-2.598-1.387-3.464-1.3-3.41c-3.008-5.309-7.857-8.256-13.387-10.528-5.706-1.017-11.28-1.13-17.062-1.125l-4.72-.07c-9.43-.09-18.406.516-27.648 2.48-9.444 1.891-18.175.51-27.49-1.208-7.97-1.387-15.777-1.42-23.843-1.142-2.13.062-4.251.064-6.382.053-8.736.168-15.591 1.57-21.855 8.012-2.5 4.178-4.367 8.419-6 13-1.603.108-3.207.186-4.812.25l-2.708.14c-2.48-.39-2.48-.39-3.948-1.997-1.865-2.913-3.175-5.88-4.528-9.065l-.833-1.943q-1.31-3.065-2.608-6.135a3992 3992 0 0 0-3.434-8.047l-.833-1.956c-1.392-3.243-2.852-6.405-4.515-9.517-2.396-4.647-3.562-9.622-4.844-14.667-1.579-6.095-3.197-12.106-5.317-18.038-1.012-3.306-1.308-6.588-1.62-10.025l-8-1-.317 2.038c-1.318 8.215-2.916 16.352-4.66 24.484a580 580 0 0 0-.916 4.39c-.438 2.14-.894 4.276-1.353 6.412l-.803 3.815L114 253l-3 1-.208-1.727c-1.658-12.987-4.448-25.235-8.73-37.585l-.665-1.926-1.967-5.676c-2.097-6.046-4.044-12.104-5.743-18.274-.224-.765-.45-1.53-.68-2.32-1.301-4.9-1.301-4.9-.105-7.308 3.173-1.79 6.506-2.878 9.973-3.934l2.145-.707c4.012-1.248 6.935-1.844 10.98-.543l-.14-3.969c-.546-22.458 3.926-43.542 10.14-65.031l.727-2.573C129.65 92.222 132.987 84.163 140 76a1580 1580 0 0 0 2.688-3.285C152.929 60.32 164.165 48.72 177 39l3.113-2.441a815 815 0 0 1 3.262-2.434l2.898-2.18c8.667-5.218 20.481-5.624 30.293-6.825q2.999-.37 5.995-.757c3.81-.48 7.623-.928 11.439-1.363l3.12-.38c7.978-.848 15.606-.281 23.567.567"/><path fill="#060604" d="m123 209 8 1 .664 2.613c2.749 10.582 5.942 20.995 9.336 31.387l.875 2.775c1.316 3.772 2.875 7.389 4.496 11.037l.979 2.219q1.02 2.31 2.045 4.618 1.557 3.514 3.107 7.03l1.994 4.509.928 2.102q1.274 2.862 2.576 5.71l1.564 3.438c1.183 2.79 1.183 2.79 3.916 3.367l2.708.07 2.73.117L171 291l.516-1.758c2.585-8.332 5.69-13.704 13.476-18.05 5.191-2.057 10.34-2.154 15.876-2.177a245 245 0 0 0 6.687-.163c8.126-.21 15.818.171 23.82 1.648 9.333 1.72 17.773 2.364 27.162.367 9.318-1.916 18.51-2.203 27.992-2.08q2.318.025 4.634.01c10.716-.041 18.768 1.335 26.837 9.203 2.455 3.96 5 8.221 5 13 3.945-.063 7.334-.495 11-2 2.824-3.437 4.176-7.285 5.688-11.437l1.374-3.46a544 544 0 0 0 2.7-6.936 128 128 0 0 1 3.355-7.82c5.646-12.145 9.104-24.9 12.647-37.78l.63-2.287q.592-2.156 1.172-4.316c1.325-4.855 1.325-4.855 2.434-5.964q3.5-.061 7 0c1.915 6.187 3.24 12.478 4.548 18.818q.485 2.34.978 4.68.839 4 1.661 8.002l.543 2.571c.892 4.385 1.482 8.426 1.27 12.929h2c2.118 11.47 2.044 22.397 1.406 34.009a952 952 0 0 0-.422 8.647q-.138 2.793-.28 5.586l-.121 2.567c-.53 9.283-2.131 16.447-7.458 24.128l-1.449 2.157a820 820 0 0 1-3.07 4.53 465 465 0 0 0-4.93 7.478l-3.238 4.96-1.553 2.4-1.451 2.198-1.28 1.957c-.38.457-.762.913-1.154 1.383h-2l-.773 2.227c-3.879 8.77-13.193 15.671-20.13 22.078-5.301 4.903-10.37 9.98-15.35 15.207-3.053 2.765-6.093 4.664-9.747 6.488l-2.984 1.528c-31.247 15.264-68.562 17.872-101.808 7.198-14.25-4.926-26.895-10.892-36.59-22.8-2.97-3.535-6.328-6.693-9.618-9.926l-3.707-3.746a125 125 0 0 0-7.98-7.317c-3.174-2.682-5.285-5.303-7.313-8.937v-2l-3-1c-1.283-1.62-1.283-1.62-2.566-3.727l-1.458-2.357-1.538-2.541a3096 3096 0 0 0-3.211-5.195l-1.628-2.634c-2.748-4.376-5.645-8.65-8.564-12.912-2.83-4.175-4.115-7.306-4.44-12.31l-.191-2.877-.193-3.115-.205-3.235a3522 3522 0 0 1-.418-6.807c-.21-3.42-.434-6.838-.658-10.257-1.595-25.347-1.595-25.347.07-35.033l2-1a107 107 0 0 0 1.875-7.437l.515-2.286c.545-2.424 1.077-4.85 1.61-7.277l1.078-4.816q1.233-5.512 2.446-11.028c.82-3.72 1.649-7.438 2.476-11.156"/><path fill="#0d53b9" d="M137 358h2c4.339 4.35 6.422 8.805 6.5 14.938-.291 6.196-.991 12.38-1.787 18.53-1.138 8.974-1.794 15.315 3.537 22.97l1.33 2.018A541 541 0 0 0 153 423q2.504 3.72 4.995 7.446a659 659 0 0 0 3.244 4.79l1.488 2.194 1.33 1.945C165 441 165 441 165 443l2.02.76c3.645 1.517 7.142 3.284 10.652 5.084l2.19 1.12 4.56 2.34c2.331 1.198 4.667 2.386 7.004 3.575l4.433 2.277 2.125 1.077c4.902 2.538 4.902 2.538 6.016 4.767-8.473-2.768-16.802-5.839-25.103-9.086q-2.52-.976-5.055-1.916C163.54 449.171 156.102 446.32 151 436a876 876 0 0 0-2.852-4.797q-1.393-2.473-2.773-4.953c-4.981-8.84-10.09-17.595-15.274-26.317l-1.581-2.663-1.404-2.357A69 69 0 0 1 125 391c-4.71 1.57-6.713 4.685-9 9-1.398 4.837-2.15 9.71-2.875 14.688q-.318 1.978-.64 3.955c-.546 3.45-1.078 6.888-1.485 10.357l-.326 2.69c.112 2.455.112 2.455 2.12 4.124l2.534 1.682 2.836 1.923 3.086 2.019q3.163 2.127 6.324 4.257l3.248 2.165c5.641 3.798 11.168 7.76 16.704 11.71 6.578 4.639 12.48 7.672 20.411 9.368q2.283.512 4.563 1.03l2.297.52c7.154 1.662 14.23 3.67 21.297 5.664a931 931 0 0 0 26.719 7.098l3.128.783c4.341 1.077 8.667 2.116 13.059 2.967l-.937-4.25-.528-2.39A249 249 0 0 0 236 474l6-5 9 6-1 5-4 2v27H6a214 214 0 0 1 4.207-26.013q.541-2.481 1.022-4.974c2.027-10.475 4.274-17.147 13.238-23.4C28.543 452 28.543 452 31 452l.75-1.75c2.469-4.444 5.476-6.652 10.215-8.321l2.983-1.074 3.204-1.12 6.729-2.45c3.53-1.272 7.06-2.537 10.6-3.784a966 966 0 0 0 10.234-3.704l3.198-1.096C85.779 426.15 88.923 423.64 92 417l1.634-2.89 1.417-2.65 1.606-2.989 1.656-3.096c7.744-14.374 7.744-14.374 11.312-20.687.59-1.049 1.18-2.097 1.79-3.176 2.586-4.097 4.614-5.63 9.085-7.387 5.757-2.718 9.08-6.84 12.92-11.755 1.16-1.484 2.366-2.93 3.58-4.37m268 68c5.744.663 10.843 2.621 16.219 4.64l2.958 1.104q3.088 1.156 6.172 2.32c3.136 1.18 6.278 2.342 9.42 3.502q3.007 1.13 6.012 2.262l2.832 1.04c6.549 2.502 10.736 5.407 15.637 10.445 3.233 3.159 6.768 5.71 10.445 8.332 4.722 4.825 5.897 12.206 7.313 18.652l.518 2.291q.806 3.58 1.599 7.162l1.09 4.848q.768 3.408 1.529 6.818c.715 3.206 1.46 6.397 2.256 9.584H269v-26h-2v-7c3.473-1.158 6.36-1.069 10-1l1 7h-3v5c18.721.716 35.744-1.498 53.875-6.125l2.834-.701c10.085-2.528 18.687-4.715 26.291-12.174a253 253 0 0 1 3.816-3.07q1.875-1.527 3.747-3.055l4.16-3.39a2366 2366 0 0 1 8.586-6.969q5.028-4.064 10.03-8.158 2.095-1.711 4.196-3.413c4.91-4.105 8.711-8.772 12.465-13.945"/><path fill="#0044ab" d="M137 358h2c4.339 4.35 6.422 8.805 6.5 14.938-.291 6.196-.991 12.38-1.787 18.53-1.138 8.974-1.794 15.315 3.537 22.97l1.33 2.018A541 541 0 0 0 153 423q2.504 3.72 4.995 7.446a659 659 0 0 0 3.244 4.79l1.488 2.194 1.33 1.945C165 441 165 441 165 443l2.02.76c3.645 1.517 7.142 3.284 10.652 5.084l2.19 1.12 4.56 2.34c2.331 1.198 4.667 2.386 7.004 3.575l4.433 2.277 2.125 1.077c4.902 2.538 4.902 2.538 6.016 4.767-8.473-2.768-16.802-5.839-25.103-9.086q-2.52-.976-5.055-1.916C163.54 449.171 156.102 446.32 151 436a876 876 0 0 0-2.852-4.797q-1.393-2.473-2.773-4.953c-4.981-8.84-10.09-17.595-15.274-26.317l-1.581-2.663-1.404-2.357A69 69 0 0 1 125 391c-4.71 1.57-6.713 4.685-9 9-1.398 4.837-2.15 9.71-2.875 14.688q-.318 1.978-.64 3.955c-.546 3.45-1.078 6.888-1.485 10.357l-.326 2.69c.112 2.455.112 2.455 2.12 4.124l2.534 1.682 2.836 1.923 3.086 2.019q3.163 2.127 6.324 4.257l3.248 2.165c5.641 3.798 11.168 7.76 16.704 11.71 6.578 4.639 12.48 7.672 20.411 9.368q2.283.512 4.563 1.03l2.297.52c7.154 1.662 14.23 3.67 21.297 5.664a931 931 0 0 0 26.719 7.098l3.128.783c4.341 1.077 8.667 2.116 13.059 2.967l-.937-4.25-.528-2.39A249 249 0 0 0 236 474l6-5 9 6-1 5-4 2v27h-6c-.902-2.707-1.119-4.238-1.098-7.012l.01-2.295.025-2.38.014-2.417q.02-2.947.049-5.896l-3.152.184c-6.31-.013-12.303-1.672-18.41-3.122l-4.02-.932q-4.353-1.01-8.701-2.03a2435 2435 0 0 0-15.076-3.463l-7.874-1.798q-2.556-.584-5.112-1.165A1120 1120 0 0 1 161 473l-2.97-.714c-6.612-1.768-12.086-4.929-17.905-8.474l-6.3-3.734q-4.338-2.587-8.669-5.184a1256 1256 0 0 0-11.37-6.741 357 357 0 0 1-3.661-2.189 389 389 0 0 0-5.16-3.054l-2.98-1.777c-6.779-2.573-13.906 1.023-20.407 3.324l-2.975 1.043q-3.098 1.09-6.192 2.192c-3.16 1.12-6.326 2.22-9.493 3.318q-3.015 1.065-6.027 2.135l-2.87.988-2.66.96-2.339.825c-2.483 1.329-3.615 2.656-5.022 5.082.698 3.492 1.885 5.834 3.918 8.754 3.05 5.291 3.617 11.367 4.52 17.317.313 2.058.644 4.113.98 6.167C54.266 498.544 55 503.608 55 509H6a214 214 0 0 1 4.207-26.013q.541-2.481 1.022-4.974c2.027-10.475 4.274-17.147 13.238-23.4C28.543 452 28.543 452 31 452l.75-1.75c2.469-4.444 5.476-6.652 10.215-8.321l2.983-1.074 3.204-1.12 6.729-2.45c3.53-1.272 7.06-2.537 10.6-3.784a966 966 0 0 0 10.234-3.704l3.198-1.096C85.779 426.15 88.923 423.64 92 417l1.634-2.89 1.417-2.65 1.606-2.989 1.656-3.096c7.744-14.374 7.744-14.374 11.312-20.687.59-1.049 1.18-2.097 1.79-3.176 2.586-4.097 4.614-5.63 9.085-7.387 5.757-2.718 9.08-6.84 12.92-11.755 1.16-1.484 2.366-2.93 3.58-4.37"/><path fill="#c08152" d="m247.25 288.688 3.092-.011c10.573-.02 21.105.175 31.642 1.093l2.41.183c5.63.567 9.669 2.284 14.606 5.047.047 3.006.057 6.006.027 9.012-.019 2.786.018 5.538.102 8.32.115 10.873.115 10.873-3.07 15.469-2.564 2.323-5.197 4.259-8.059 6.199a518 518 0 0 0-5.125 4.188l-2.52 1.964a113 113 0 0 0-4.304 3.54c-11.378 9.516-25.968 9.486-40.051 8.308-10.998-1.422-17.565-7.245-25.38-14.521-2.328-2.125-4.774-4.086-7.245-6.041-.755-.6-1.51-1.2-2.29-1.817-2.018-1.651-2.018-1.651-4.182-2.8C195 325 195 325 194.483 321.953l-.014-3.703-.012-1.983q-.004-2.073.022-4.146c.02-2.114 0-4.225-.026-6.34q.004-2.015.016-4.031l.013-3.703c.518-3.047.518-3.047 2.304-4.91 13.83-7.105 35.334-4.433 50.464-4.45"/><path fill="#a45a25" d="M261.063 23.25q2.05.21 4.1.417C275.502 24.74 285.767 26.162 296 28l-1 2-1.77-.002c-28.364-.012-56.007.373-83.825 6.316-2.18.44-4.376.812-6.582 1.097-5.683.74-8.912 1.634-12.548 6.183l-1.338 1.843a1822 1822 0 0 1-3.023 3.829l-1.48 1.92c-2.08 2.63-4.332 5.05-6.621 7.502a214 214 0 0 0-9.188 10.687c-3.89 4.829-8.01 9.377-12.289 13.859-1.475 1.563-2.905 3.162-4.336 4.766l-1.557 1.577c-5.838 6.585-6.794 15.069-8.443 23.423-.67 3.246-1.351 6.49-2.031 9.734l-.501 2.423c-1.598 7.658-3.54 15.222-5.741 22.73-4.476 16.52-.92 34.825.71 51.55l.698 7.358c.894 9.409 1.797 18.814 2.865 28.205-1.802-2.703-2.491-4.292-3.29-7.344l-.663-2.527-.672-2.629-.695-2.629C131 213.402 131 213.402 131 210l-8-1-.317 2.038c-1.318 8.215-2.916 16.352-4.66 24.484a580 580 0 0 0-.916 4.39c-.438 2.14-.894 4.276-1.353 6.412l-.803 3.815L114 253l-3 1-.208-1.727c-1.658-12.987-4.448-25.235-8.73-37.585l-.665-1.926-1.967-5.676c-2.097-6.046-4.044-12.104-5.743-18.274-.224-.765-.45-1.53-.68-2.32-1.301-4.9-1.301-4.9-.105-7.308 3.173-1.79 6.506-2.878 9.973-3.934l2.145-.707c4.012-1.248 6.935-1.844 10.98-.543l-.14-3.969c-.546-22.458 3.926-43.542 10.14-65.031l.727-2.573C129.65 92.222 132.987 84.163 140 76a1580 1580 0 0 0 2.688-3.285C152.929 60.32 164.165 48.72 177 39l3.113-2.441a815 815 0 0 1 3.262-2.434l2.898-2.18c8.667-5.218 20.481-5.624 30.293-6.825q2.999-.37 5.995-.757c3.81-.48 7.623-.928 11.439-1.363l3.107-.383c8.108-.869 15.866-.234 23.956.633"/><path fill="#c18254" d="m178 399 3.082 1.798c29.242 16.668 66.127 22.125 98.935 13.803 12.51-3.566 24.396-8.733 35.983-14.601-5.625 6.845-11.92 12.971-18.251 19.155-5.951 5.822-11.5 11.763-16.692 18.273a221 221 0 0 1-5.752 6.873C268.065 452.727 262.33 460.725 258 471h-2l-.637-1.582c-6.021-12.782-19.945-20.41-31.297-27.984L219 438l-3.21-2.136c-8.66-5.878-16.068-12.574-23.382-20.044a757 757 0 0 0-5.494-5.535 2989 2989 0 0 1-3.5-3.535l-1.657-1.663C178 401.232 178 401.232 178 399"/><path fill="#2266c8" d="M352 365c4.677 2.211 8.38 4.406 11 9 .697 5.252.19 10.276-.437 15.5l-.235 2.193c-1.21 10.955-3.41 18.887-10.706 27.283-3.545 4.424-6.41 9.362-9.435 14.149-10.06 15.836-10.06 15.836-18.775 17.788l-2.6.524-5.609 1.231-3.017.642c-5.725 1.24-11.421 2.603-17.123 3.94q-3.263.762-6.528 1.516l-2.8.649c-2.9.62-5.807 1.118-8.735 1.585 2.296-2.508 4.675-4.124 7.613-5.82l2.765-1.61 2.935-1.695c7.879-4.59 15.614-9.308 23.203-14.363C316 436 316 436 318 436l.645-1.945c1.9-4.284 4.462-8.028 7.043-11.93l1.703-2.64c3.148-4.858 6.396-9.594 9.84-14.247 9.436-12.686 9.436-12.686 10.894-27.925a853 853 0 0 0-.867-4.575L347 369c2.43-2.52 2.43-2.52 5-4"/><path fill="#2266c8" d="M381 394c3.55 4.156 6.227 8.594 8.938 13.313q1.26 2.182 2.527 4.363l1.248 2.163c1.708 2.868 3.548 5.644 5.414 8.411.873 1.75.873 1.75.435 4.875-3.591 6.609-7.282 10.645-13.187 15.25l-2.18 1.734A1462 1462 0 0 1 378 449a2781 2781 0 0 0-5 4l-2.29 1.824c-4.412 3.542-8.795 7.12-13.179 10.697l-1.992 1.624-1.775 1.448L352 470l-1.76 1.585c-3.04 1.92-6.12 2.37-9.611 2.915l-2.176.37a950 950 0 0 1-6.89 1.13q-4.5.742-8.997 1.5l-2.208.366c-5.683.963-11.258 2.233-16.839 3.68C301 482 301 482 298 481a30943 30943 0 0 1 19.94-9.435q3.652-1.729 7.306-3.456l2.246-1.064a862 862 0 0 1 11.43-5.302l2.222-1.012C343 460 343 460 345 460l.652-1.59c1.877-3.355 4.383-6.1 6.91-8.973a3110 3110 0 0 0 4.893-5.637c2.934-3.418 5.763-6.918 8.58-10.433C368 431 368 431 369.746 429.257c8.527-8.547 9.287-23.78 11.254-35.257m27 39c8.64 2.224 17.127 4.866 25.6 7.651q2.223.728 4.452 1.437c2.182.694 4.356 1.407 6.53 2.123l1.989.622c4.778 1.608 7.776 3.817 11.429 7.167-.6 2.883-1.451 4.997-3.066 7.453l-1.221 1.875-1.276 1.922-1.287 1.969q-1.569 2.395-3.15 4.781-2.408-.466-4.812-.937l-2.708-.528C438 468 438 468 435 467a137 137 0 0 0-5.848-.297l-3.64-.121-3.93-.117-4.023-.13q-5.289-.17-10.579-.33-5.4-.168-10.798-.343-10.59-.339-21.182-.662c4.75-3.823 9.66-7.303 14.688-10.75l2.626-1.824 2.51-1.723 2.284-1.573C399 448 399 448 401 448l.688-2.437c1.65-4.48 3.932-8.44 6.312-12.563"/><path fill="#fbfafb" d="m247.25 288.688 3.092-.01c10.621-.02 21.185.187 31.767 1.154l2.461.209c4.73.492 8.25 1.519 12.43 3.959l-2 7c-11.091 2.152-22.192 4.256-33.312 6.25l-2.87.53-2.744.486-2.388.43c-6.352.718-11.888.26-18.116-1.122l-2.046-.449q-2.126-.47-4.25-.95a930 930 0 0 0-6.41-1.423c-21.144-4.672-21.144-4.672-23.989-8.94L198 293c8.096-8.096 38.414-4.307 49.25-4.312"/><path fill="#050404" d="M202 300c5.648.448 11.075 1.38 16.598 2.629l2.07.468q4.278.973 8.551 1.967c2.104.488 4.21.964 6.316 1.44l3.762.87c6.805 1.151 12.846.629 19.57-.687l4.434-.82q3.429-.648 6.858-1.304c8.338-1.584 16.308-2.97 24.841-2.563l-2.574 2.91c-2.414 2.782-4.476 5.643-6.508 8.711-5.193 7.071-10.62 12.763-19.543 14.41-5.37.73-10.712.872-16.125.906l-2.695.074c-9.217.164-16.581-.342-23.72-6.606a116 116 0 0 1-6.485-6.894c-1.801-2.016-3.79-3.765-5.85-5.511l-1.812-1.574a266 266 0 0 0-5.188-4.238L202 302z"/><path fill="#2c232a" d="m323.896 146.858 2.707-.08 2.38-.084c2.017.306 2.017.306 4.716 3.2a77 77 0 0 1 1.989 3.919q1.093 2.063 2.19 4.125c.352.685.702 1.371 1.064 2.078 2.034 3.814 4.53 7.326 6.94 10.91.37.684.738 1.369 1.118 2.074l-1 2-2.09-1.426c-13.756-9.114-23.732-9.59-39.722-6.636-24.943 4.357-24.943 4.357-30.188 1.062-1.2-2.558-2.044-4.758-2.812-7.437l-.655-2.065c-.904-2.93-1.533-5.417-1.533-8.498q10.834-.646 21.667-1.282 3.681-.216 7.362-.436 5.31-.317 10.62-.626l3.29-.199c3.984-.23 7.97-.404 11.957-.599"/><path fill="#2c242b" d="M163 147c12.409-1.8 26.417.679 38.875 1.5l6.746.434q8.19.525 16.379 1.066-.459 2.114-.922 4.227l-.518 2.377c-2.22 9.506-2.22 9.506-6.212 12.158-4.035 1.492-6.412 1.286-10.66.675-.714-.095-1.427-.19-2.163-.29-4.645-.645-9.261-1.443-13.88-2.252l-3.33-.57a412 412 0 0 1-6.496-1.179c-10.354-1.81-17.124-.165-25.881 5.479l-2.045 1.273A500 500 0 0 0 148 175c0-3.6.935-4.934 2.773-8l1.75-2.937 1.852-3.063 1.828-3.062c2.208-3.69 4.411-7.36 6.797-10.938"/><path fill="#2266c8" d="m161 383 .641 1.651c11.357 27.806 34.636 49.754 61.7 62.12 12.222 5.652 21.44 10.96 27.659 23.229l-1 2-.968-1.604c-4.064-6.116-7.97-8.251-14.821-10.544l-2.848-1.038a705 705 0 0 0-8.988-3.189c-13.318-4.647-24.18-8.677-34.375-18.625a119 119 0 0 0-3.664-2.883 355 355 0 0 1-4.58-3.51c-2.474-1.93-4.924-3.707-7.623-5.31-6.578-4.177-8.297-8.545-10.008-15.86a402 402 0 0 1-1.606-7.893c-.777-3.811-1.795-7.546-2.832-11.294l-.988-3.672L156 384c3-1 3-1 5-1"/><path fill="#c18051" d="M117 175c1.775 1.775 1.235 4.378 1.316 6.785l.127 3.545.12 3.732.13 3.745q.16 4.596.307 9.193c-2.274-2.927-3.684-5.561-5.062-9-2.023-4.181-3.691-5.863-8-7.625-3.29-1.105-5.39-1.375-8.938-1.375l4 12-1-10a203 203 0 0 1 5 2l2.996 1.145c3.908 2.414 4.514 4.417 5.942 8.73l1.277 3.68c.768 3.37.846 5.197-.215 8.445l-1 1a129 129 0 0 0-.25 7.25l-.062 2.027c-.036 4.532.834 7 3.312 10.723 1.395 7.003-.623 15.426-3 22l-3 1-.208-1.727c-1.658-12.987-4.448-25.235-8.73-37.585l-.665-1.926-1.967-5.676c-2.097-6.046-4.044-12.104-5.743-18.274-.224-.765-.45-1.53-.68-2.32-1.302-4.902-1.302-4.902-.1-7.304 3.157-1.791 6.458-2.922 9.906-4l2.119-.733c4.673-1.482 7.457-1.623 12.068.545"/><path fill="#c28051" d="m400 179 2 1c-2.069 8.712-4.318 17.355-6.875 25.938l-.765 2.572c-1.204 3.964-2.468 7.871-3.973 11.732-4.55 11.705-6.167 23.286-7.387 35.758h-3a28399 28399 0 0 1-3.361-17.303 11188 11188 0 0 1-1.975-10.17c-2.51-13.328-1.453-25.674 5.14-37.675 3.514-4.564 7.624-6.631 13.196-7.852 2-.06 4.001-.076 6 0z"/><path fill="#0045ac" d="M368 372c13.954 5.275 18.015 15.55 24.66 28.186a1985 1985 0 0 0 3.502 6.615l2.233 4.222 1.054 1.99c1.386 2.64 2.605 5.15 3.551 7.987h-2l-1.266-2.38a8571 8571 0 0 0-4.758-8.924l-2.04-3.828c-4.468-8.4-9.073-16.687-13.936-24.868l-.58 2.427q-1.085 4.524-2.191 9.042-.702 2.891-1.39 5.787c-4.369 17.804-4.369 17.804-11.026 24.619-3.201 3.389-6.257 6.812-9.188 10.438-3.9 4.819-7.881 9.56-11.908 14.272-2.668 3.118-2.668 3.118-4.988 6.495-2.378 2.641-4.3 2.831-7.768 3.483l-3.676.72-3.91.717q-2.973.573-5.945 1.155-2.924.57-5.849 1.131c-5.845 1.165-11.615 2.593-17.394 4.05-2.85.594-5.29.807-8.187.664 2.848-1.899 4.742-2.625 7.988-3.516l3.049-.841 3.276-.893 3.367-.957c5.48-1.544 10.921-2.958 16.515-4.023 11.842-2.233 11.842-2.233 20.367-10.14 1.59-2.767 3.002-5.593 4.36-8.481 1.805-3.598 4.103-6.845 6.39-10.149a433 433 0 0 0 3.51-5.243q1.199-1.786 2.49-3.508c4.251-6.01 5.183-12.266 6.313-19.437q.577-3.46 1.164-6.917l.575-3.42c1.013-5.538 2.308-11.005 3.636-16.475"/><path fill="#c08254" d="m178 399 2.978 1.802c3.98 2.27 8.057 3.846 12.37 5.362l2.348.843c2.453.879 4.91 1.748 7.367 2.618l4.955 1.773q4.551 1.63 9.107 3.245l1.994.717c1.748.595 3.531 1.085 5.314 1.567C227 418 227 418 227.966 419.844l.327 2.226.452 2.457.442 2.598c1.385 6.477 2.481 10.738 8.125 14.75A126 126 0 0 0 243 445q2.355 1.483 4.688 3l3.312 2c-2 1-2 1-3.8.487l-2.157-.885-2.373-.954-2.482-1.023c-5.735-2.484-5.735-2.484-11.75-4.008-4.104-1.039-7.23-3.662-10.625-6.117l-2.135-1.492c-10.185-7.263-18.977-16.126-27.803-24.945l-2.898-2.862-2.735-2.728-2.473-2.461C178 401 178 401 178 399"/><path fill="#2266c8" d="M463 461c4.715 1.22 8.29 2.808 12 6 2.953 5.827 3.398 12.734 4.25 19.125q.417 2.655.848 5.309C482 503.445 482 503.445 482 509h-14l-2.843-8.112c-1.192-3.35-2.454-6.645-3.86-9.911l-.843-1.985a576 576 0 0 0-2.415-5.52c-2.432-8.127 1.743-15.128 4.961-22.472"/><path fill="#0045ab" d="M404 427c1.521 4.564.022 7.393-1.871 11.7-3.91 6.062-9.817 9.575-15.693 13.593-4.526 3.172-8.87 6.586-13.248 9.957q-2.7 2.048-5.403 4.094c-2.717 2.062-5.407 4.141-8.039 6.312-4.73 3.778-8.736 5.827-14.64 7.278q-2.014.506-4.026 1.018l-2.06.52c-3.141.821-6.243 1.768-9.352 2.704-17.847 5.184-35.163 8.45-53.668 3.824v21h-7v-26h-2v-7c3.473-1.158 6.36-1.069 10-1l1 7h-3v5c18.721.716 35.744-1.498 53.875-6.125l2.834-.701c10.085-2.528 18.687-4.715 26.291-12.174a253 253 0 0 1 3.816-3.07q1.875-1.527 3.747-3.055l4.16-3.39a2366 2366 0 0 1 8.586-6.969q5.026-4.062 10.026-8.153 2.115-1.73 4.235-3.453c4.559-3.822 8.067-8.005 11.43-12.91"/><path fill="#70522b" d="M293.688 182.688 296 183v3c2.942 2.212 2.942 2.212 6 4l-2-7h17c4.194 9.787 4.194 9.787 2.156 15.27-1.959 4.096-3.673 7.013-7.969 8.792-6.475 1.774-12.416 1.83-18.417-1.46-3.587-3.246-4.931-7.945-5.77-12.602.573-4.609 1.476-9.707 6.688-10.312"/><path fill="#73552d" d="M182 183c1.563 2.375 1.563 2.375 3 5l3 2-1-7h16c4.216 9.3 4.216 9.3 3.207 12.574L205 198l-.684 2.133c-1.348 3.562-2.357 5.413-5.882 7.082-7.986 2.307-7.986 2.307-12.434.785l-2-.656c-4.245-1.791-6.489-3.44-8.5-7.656-1.48-4.025-2.162-7.387-1.5-11.688 2.979-5 2.979-5 8-5"/><path fill="#0346a9" d="M340 376c1.248 2.055 2.051 3.397 1.845 5.832-1.195 3.066-3.093 4.782-5.421 7.1l-1.44 1.446a953 953 0 0 1-4.738 4.704l-3.301 3.296q-3.465 3.457-6.943 6.902a3102 3102 0 0 0-8.84 8.795 7085 7085 0 0 1-8.478 8.445l-1.609 1.602c-5.354 5.33-10.722 10.6-16.48 15.497-7.248 6.277-12.976 13.953-18.284 21.873-3.003 4.405-3.003 4.405-6.311 5.508 3.953-13.837 16.775-25.23 26-36l1.507-1.788c5.62-6.572 11.797-12.582 17.95-18.649 5.143-5.077 10.183-10.179 14.885-15.673 2.985-3.402 6.2-6.575 9.408-9.765l1.996-2.008 1.926-1.922 1.722-1.718C337 378 337 378 340 376"/><path fill="#0d53b9" d="M37 472q1.947 1.36 3.875 2.75l2.18 1.547c3.376 2.956 4.191 6.172 5.015 10.476l.528 2.75.527 2.852.55 2.828C50.58 500.003 51 504.036 51 509H31c.566-8.61 1.785-16.814 3.563-25.25l.708-3.45q.855-4.151 1.729-8.3"/><path fill="#d98189" d="m233.867 288.832 3.134-.01q3.27-.007 6.54-.007c3.316-.002 6.632-.02 9.947-.04q3.19-.005 6.38-.005l2.974-.022c6.02.02 11.326.741 17.158 2.252-3.092 1.6-5.969 2.62-9.352 3.473l-3.078.787-3.195.803q-3.145.795-6.29 1.597l-2.81.707c-2.282.557-2.282.557-4.275 1.633-6.494.54-12.211-1.153-18.437-2.875l-5.997-1.617-2.862-.78A500 500 0 0 0 213 292c6.06-4.04 13.81-3.16 20.867-3.168"/><path fill="#2165c8" d="M327 402c0 3.862-1.054 4.55-3.562 7.438-5.28 6.249-10.125 12.783-14.944 19.392-5.207 7.049-10.79 12.992-17.682 18.42-5.2 4.186-10.104 8.617-14.996 13.152-3.545 3.27-7.163 6.45-10.816 9.598 0-3.44.495-4.021 2.527-6.66l1.637-2.14 1.774-2.262 1.808-2.327c6.655-8.495 13.662-16.2 21.67-23.435 6.397-5.82 12.447-11.988 18.517-18.146 4.528-4.574 9.107-8.926 14.067-13.03"/><path fill="#ca8d60" d="M261 242c-.261 1.356-.535 2.71-.812 4.063l-.458 2.285c-.915 3.325-2.371 6.482-3.73 9.652l-18-2c-1.131-3.394-1.133-6.053-1.125-9.625l-.008-3.54C237 240 237 240 238 239c2.735-.54 5.43-.985 8.188-1.375l2.29-.402c6.04-.828 8.306.406 12.522 4.777"/><path fill="#a75f2b" d="M221 240c1.11 3.329.941 3.874-.215 7.012l-.83 2.295-.893 2.38-.88 2.417A927 927 0 0 1 216 260l2.2.434c2.544.514 5.079 1.061 7.613 1.628l2.394.536L230 263l1-4a100 100 0 0 1 5 0c1 1 1 1 1 7l20-1v-5c1-1 1-1 3.563-1.062L263 259l1 4 14-3-1.129-2.922-1.433-3.828-.749-1.922c-1.271-3.438-2.156-5.85-.689-9.328a741 741 0 0 1 3.563 7.25l1.037 2.066c2.459 5.117 2.459 5.117 2.18 7.807-1.126 2.708-3.099 3.272-5.698 4.361l-1.957.766-1.934.813C268.31 266.242 266.141 267 263 267v-4h-3v5h-26v-5h-3v4c-4.689-.556-8.2-1.882-12.375-4.062l-3.21-1.66L213 260c2.162-6.94 4.894-13.431 8-20"/><path fill="#a45c28" d="m398 183-4 12h-1l1-9-1.898 1.094-2.477 1.406-2.46 1.406C385 191 385 191 383 191c-2.655 8.874-2.655 8.874-4 18l2 2c.837 8.049 1.142 15.412-4 22-6.163-9.245-4.047-20.641-2-31 1.722-6.339 4.26-12.032 9.73-15.96 4.759-2.325 7.906-3.04 13.27-3.04"/><path fill="#f9f6f3" d="m176 185-1 3c-.605 6.05.673 10.95 4 16 3.052 2.115 3.052 2.115 6 3v2c-7.209.996-11.187-2.252-16.875-6.375l-2.625-1.828c-6.336-4.47-6.336-4.47-7.5-6.797q3.933-2.257 7.875-4.5c.746-.43 1.493-.859 2.262-1.3l2.168-1.231 2-1.143C174 185 174 185 176 185"/><path fill="#050504" d="M187 184c4.291-.42 6.351-.455 9.938 2.063 2.544 3.623 2.635 5.596 2.062 9.937l-2 2h-3v3c-7.169.478-7.169.478-10.5-1.437-2.214-3.782-1.83-7.284-1.5-11.563 2.169.506 4 1 6 2z"/><path fill="#fcfaf9" d="M318 185c5.785 1.522 11.275 4.33 16 8v3c-3.434 2.976-7.261 5.423-11 8l-1.785 1.41c-4.07 3.162-7.275 2.93-12.215 2.59 2-2 2-2 3.98-2.91 3.004-1.62 3.908-3.631 5.336-6.649 1.258-4.492.451-8.906-.316-13.441"/><path fill="#040403" d="M301 184c6.192-.476 6.192-.476 9.438 1.438 2.3 3.772 1.893 7.253 1.562 11.562l-5 1v3c-4.291.42-6.351.455-9.937-2.062-2.518-3.587-2.484-5.647-2.063-9.938 1.813-.625 1.813-.625 4-1l3 2z"/><path fill="#f9f7f4" d="M204 183c5.594 4.061 10.86 8.38 16 13-10.93 11.287-10.93 11.287-17.941 12.516-2.406-.014-4.683-.145-7.059-.516l2-2h4l.813-2.687C203 200 203 200 204.75 197.625c1.634-3.43.939-5.154-.207-8.66C204 187 204 187 204 183"/><path fill="#664924" d="M300 183h17c3.699 8.631 3.699 8.631 3 13-1.845 4.479-3.496 8.165-7.812 10.563L310 207c-2.062-1.687-2.062-1.687-4-4 .25-2.75.25-2.75 1-5l5-1a212 212 0 0 0-.312-4.312l-.176-2.426c-.612-2.704-1.26-3.665-3.512-5.262-2.054-.36-2.054-.36-4.187-.187L300 185z"/><path fill="#f9f6f3" d="m289 183 2 1-1.625 2.438c-1.856 4.81-.77 7.76.625 12.562.34 1.665.677 3.331 1 5l2.875.875C297 206 297 206 299 208c-4.259.992-8.03 1.093-11.946-1.08-4.56-3.035-8.823-6.445-13.054-9.92a224 224 0 0 1 10.313-9.812l2.675-2.395z"/><path fill="#c08054" d="m234.113 288.832 3.184-.01q3.315-.007 6.629-.007c3.393-.003 6.785-.02 10.178-.04q3.224-.005 6.447-.005l3.084-.022 2.843.01 2.506-.005C271 289 271 289 273 291c-14.274 2.79-26.609 4.761-41 2-2.995-.417-5.997-.77-9-1.125q-2.031-.252-4.062-.508L216 291v-1c6.057-1.057 11.973-1.161 18.113-1.168"/><path fill="#c88c48" d="M174 181c30.93-2.26 30.93-2.26 38.086 2.895 3.228 3.007 5.672 6.318 7.914 10.105l-1 2-2.266-1.863-2.984-2.45-2.953-2.425L208 187l-1.812-1.75c-3.464-1.98-7.013-1.824-10.938-1.937l-2.402-.104A558 558 0 0 0 187 183l2 7c-3 0-3 0-5.187-1.812C182 186 182 186 182 183c-7.009 2.497-13.145 5.73-19.434 9.707L160 194l-3-1 1.453-.886q3.246-1.99 6.484-3.989l2.288-1.395 2.177-1.347 2.016-1.238c1.738-1.072 1.738-1.072 2.582-3.145"/><path fill="#c98d47" d="M301.71 179.95c2.25.114 4.491.144 6.745.161 10.787.243 10.787.243 13.808 2.817L324 185a138 138 0 0 0 6.25 3.75l3.266 1.86L336 192l-1 3-1.398-.918c-5.35-3.436-10.876-6.324-16.602-9.082v-2h-17l3 7c-3.932 0-5.164-1.394-8-4v-2c-2.884-.381-5.096-.575-7.62 1.031-1.655 1.43-3.212 2.918-4.755 4.469l-1.652 1.59A343 343 0 0 0 277 195l-1-3c7.517-9.853 13.349-12.68 25.71-12.05"/><path fill="#a8602c" d="m225 417 2 1c.511 1.73.511 1.73.902 3.973 2.015 11.438 2.015 11.438 9.41 19.902A126 126 0 0 0 243 445q2.355 1.483 4.688 3l3.312 2c-2 1-2 1-4.215.32l-2.722-1.12-2.961-1.214-3.102-1.298-3.102-1.264c-7.63-3.156-7.63-3.156-9.898-5.424-.227-2.338-.227-2.338-.195-5.227l.02-3.125.05-3.273.027-3.297q.036-4.039.098-8.078"/><path fill="#30262c" d="M218 150h7c-3.014 15.32-3.014 15.32-7.437 19.063-5.282 1.39-10.199.657-15.563-.063 4-2 4-2 5.93-2.902 6.516-3.468 9.04-8.544 12.07-15.098z"/><path fill="#2f262c" d="M269 150h8l-1.113 1.758c-1.127 2.17-1.127 2.17-.305 4.172 3.164 5.002 6.549 7.902 11.625 10.941L289 168v1c-1.56.224-3.123.429-4.687.625l-2.637.352c-3.25.028-4.915-.224-7.676-1.977-1.2-2.558-2.044-4.758-2.812-7.437l-.655-2.065c-.904-2.93-1.533-5.417-1.533-8.498"/><path fill="#6d5028" d="m182 183 2 5h-2c.115 1.418.243 2.834.375 4.25.07.789.14 1.578.21 2.39.43 2.446 1.201 4.208 2.415 6.36l-2 3c-2.812 0-2.812 0-6-1-2.952-4.434-3.686-9.804-3-15 2.979-5 2.979-5 8-5"/><path fill="#a8602c" d="M237 206h1c-.518 8.444-1.456 16.68-3 25l2.113-.488c3.074-.545 5.954-.68 9.075-.7l3.167-.042C252 230 252 230 254 232c-8.819 1.964-17.236 3.36-26.27 3.79-2.693.035-2.693.035-4.73 1.21l2-5h7l.332-2.387c1.162-7.983 2.745-15.78 4.668-23.613"/><path fill="#0146ac" d="M452 467c1.294 3.881.415 5.24-1.02 9.031l-1.35 3.649-1.442 3.82c-3.193 8.449-5.98 16.522-7.188 25.5h-4c-.954-9.22 1.429-15.24 5.813-23.25l3.269-6.203 1.545-2.897c1.637-3.16 3.044-6.35 4.373-9.65"/><path fill="#74552d" d="m202 199-2 4-1.812-.5c-2.301-.611-2.301-.611-5.188-.5l-.375 2.375C192 207 192 207 190 209c-3.038-.402-5.548-1.666-8.25-3.062l-2.14-1.098L178 204l1-2 1.813.688L183 203l1.25-1.5c1.75-1.5 1.75-1.5 3.715-1.48 2.02.266 4.03.618 6.035.98v-3c3.623-1.208 4.641-.543 8 1"/><path fill="#9a582b" d="m178 399 2.625 1.688c5.726 3.307 12.137 5.2 18.375 7.312l-1 4-7 2q-3.258-3.18-6.5-6.375l-1.879-1.828-1.777-1.758c-.545-.534-1.09-1.068-1.65-1.619C178 401 178 401 178 399"/><path fill="#bc7746" d="m400 179 2 1c-2.36 9.78-4.916 19.42-8 29h-2l2-12-3 4 1-6h2l.375-2.687c.574-3.041 1.276-5.536 2.625-8.313l2-1c.652-2.025.652-2.025 1-4"/><path fill="#6d522d" d="M314 198c1.813 1.563 1.813 1.563 3 3-2.394 4.667-2.394 4.667-4.937 6.063C310 207 310 207 307.688 205.375 306 203 306 203 306.125 200.313c1.596-4.22 4.045-3.434 7.875-2.313"/><path fill="#b56f3b" d="M117 175c1 1 1 1 1.098 2.848L118 184l-2-1v-2l-2.687-.875A140 140 0 0 1 105 177v-2c4.77-2.044 7.244-2.102 12 0"/><path fill="#a8612d" d="M237 335h25l-1 3c-3.25.087-6.5.14-9.75.188l-2.79.076-2.694.029-2.476.048C241 338 241 338 237 335"/><path fill="#7e5e35" d="M300 183h17l3 9h-2v-3l-5 2-2-3c-1.678-2.06-2.473-2.9-5.113-3.398-2.453-.008-2.453-.008-5.887.398z"/><path fill="#1c151d" d="M274 152c2.932 1.321 4.987 2.746 7.234 5.04l1.739 1.757 1.777 1.828 1.824 1.852q2.219 2.255 4.426 4.523c-3 1-3 1-5.086.066-5.424-3.563-9.226-7.07-11.914-13.066z"/><path fill="#b76837" d="m387 174 2 1v2l-2.336 1.023-3.039 1.352-3.023 1.336c-2.682 1.156-2.682 1.156-4.602 3.289-.178-3.906-.207-6.689 2-10 3.09-1.545 5.678-.593 9 0"/><path fill="#1c151d" d="M220 152c-2.488 7.049-5.836 11.285-12.098 15.215C206 168 206 168 203 167a1980 1980 0 0 1 7.375-7.5l2.117-2.168 2.031-2.05c.618-.63 1.236-1.258 1.873-1.905C218 152 218 152 220 152"/><path fill="#be7a4b" d="M93 182c1.86.586 1.86.586 4 2 1.266 3.04 1.266 3.04 2.25 6.625l1.016 3.602L101 197h-2l1 5h-2q-1.26-3.872-2.5-7.75l-.723-2.21-.683-2.15-.635-1.967C93 186 93 186 93 182"/><path fill="#33292d" d="M330 164c10.61-.27 10.61-.27 13.945 2.777 1.307 2.065 2.351 3.882 3.055 6.223l-1 2-2.195-1.46-2.93-1.915-2.883-1.898c-2.952-1.704-5.73-2.769-8.992-3.727z"/><path fill="#74552c" d="M306 201a88 88 0 0 1 1 5c-1 1-1 1-3.75 1.25-3.584-.276-5.349-1.202-8.25-3.25 2.782-4.174 6.466-3.223 11-3"/><path fill="#1c151d" d="m327 148 2 1-1.828 1.25c-5.628 4.067-8.57 7.303-11.172 13.75h-1c-.485-7.273-.485-7.273 1.5-10.25 3.288-2.302 6.7-4.41 10.5-5.75"/><path fill="#6b4d26" d="M204 196c1 2 1 2 .574 3.875-.993 2.381-1.882 4.163-3.574 6.125-3.29 1.277-6.492 1.732-10 2l2-6c5.75-1 5.75-1 8-1 1.645-2.463 1.645-2.463 3-5"/><path fill="#a24f17" d="M170 45c0 3 0 3-1.313 4.546l-1.828 1.634-1.996 1.816-2.113 1.879C158.455 58.732 154.61 62.48 151 67h-2l-1 3-1-2c4.173-4.995 8.596-9.704 13.188-14.312l1.547-1.562c2.616-2.606 5.237-5.008 8.265-7.126"/><path fill="#1c151d" d="M165 148c4.84 1.417 8.785 3.273 13 6 1.158 3.473 1.069 6.36 1 10-2-1-2-1-3.062-4.125-1.786-4.547-5.192-6.73-9.075-9.492L165 149z"/><path fill="#bb7949" d="M296 28c2.063.438 2.063.438 4 1v2h-43v-1l3.472-.076q6.355-.142 12.708-.296 2.755-.066 5.51-.125 3.95-.088 7.9-.187l2.503-.05c3.762.256 3.762.256 6.907-1.266"/><path fill="#c17748" d="M332 53c4.66 3.727 8.813 7.767 12.875 12.125l1.48 1.56C348.777 69.323 350.6 71.36 351 75l-3.379-3.383a610 610 0 0 0-3.523-3.484C334.886 59.045 334.886 59.045 332 55z"/><path fill="#a65016" d="m144 71 2 1-1.828 2.344C139.825 80.008 135.902 85.437 133 92h-2c.537-4.421 2.144-6.976 4.813-10.5l2.082-2.781A504 504 0 0 1 144 71"/><path fill="#1d161d" d="M336 162c2.938 1.063 2.938 1.063 5 2v2l-2.266-.219-2.984-.281-2.953-.281c-2.26-.177-4.53-.219-6.797-.219l1-3c3.12-1.56 5.638-.627 9 0"/><path fill="#1c151d" d="m167 162 1 2-15 2v-2c5.15-2.628 8.174-3.515 14-2"/><path fill="#ad6633" d="M237 206h1c-.82 14.359-.82 14.359-3 20l-2 1c.702-7.156 2.308-14.019 4-21"/><path fill="#968166" d="M309 197c3.688.498 5.605 1.1 8 4l-2 3-2-1v-2l-5 1z"/><path fill="#f1eeeb" d="m300 183 3 7c-3.932 0-5.164-1.394-8-4v-2c2-1 2-1 5-1"/><path fill="#73552e" d="m313 194 7 1-3 6-1-2c-2.025-.652-2.025-.652-4-1z"/><path fill="#c07343" d="M93 182c1.938.625 1.938.625 4 2 .938 2.938.938 2.938 1 6-1.437 1.875-1.437 1.875-3 3-1.193-3.877-2-6.916-2-11"/><path fill="#f5f3f1" d="M183 183c1.875.125 1.875.125 4 1 1.25 3.063 1.25 3.063 2 6-3 0-3 0-5.187-2L182 186z"/><path fill="#a18c71" d="m202 199-2 4-1.875-.5c-2.086-.576-2.086-.576-4.125-.5v-4c3.623-1.208 4.641-.543 8 1"/><path fill="#ac6532" d="m257 260 1 3h2v5c-2.375.188-2.375.188-5 0l-2-3h4z"/><path fill="#cd9455" d="m325 186 11 6-1 3-1.68-1.059-2.195-1.379-2.18-1.37c-1.923-1.217-1.923-1.217-3.945-2.192z"/><path fill="#cc9251" d="m168 186 1 3q-2.147 1.297-4.312 2.563l-2.426 1.44C160 194 160 194 157 193z"/><path fill="#0036a4" d="M139 358c-.349 3.255-1.021 4.019-3.562 6.25L133 366c.376-2.782.673-4.588 2.438-6.812C137 358 137 358 139 358"/><path fill="#1d161e" d="M200 155c1 3 1 3 .074 5.008l-1.387 2.117-1.363 2.133C196 166 196 166 194 167c1.566-4.308 3.683-8.062 6-12"/><path fill="#b76d3e" d="M296 28c2.063.438 2.063.438 4 1v2h-15v-1l2.152-.184 2.786-.253 2.777-.247c2.247-.076 2.247-.076 3.285-1.316"/><path fill="#7f623d" d="M179 183h3l2 5-3 1-3-2z"/><path fill="#b06d37" d="M381 249h2v7h-3c-.043-2-.04-4 0-6z"/><path fill="#7a5b32" d="M302 201h4a88 88 0 0 1 1 5c-1 1-1 1-3.562 1.063L301 207l3-1v-4zm-112 0 4 1-2 5-3-1z"/><path fill="#0035a5" d="M9 492h2l-1 8-3-1z"/><path fill="#1c151d" d="M294 157c2.615 2.366 4.39 4.86 6 8l-1 2c-2.912-3.288-4.497-5.599-5-10"/><path fill="#66564b" d="m297 295 2 1-3 7-5-1 1.875-.125L295 301c1.305-2.996 1.305-2.996 2-6"/><path fill="#6d4f28" d="M308 184h7v2l-4 2z"/></svg>